<?xml version="1.0" encoding="UTF-8"?>
<svg id="Layer_1" data-name="Layer 1" xmlns="http://www.w3.org/2000/svg" version="1.1" viewBox="0 0 204 80">
  <defs>
    <style>
      .cls-1 {
        fill: #fc1c46;
      }

      .cls-1, .cls-2 {
        stroke-width: 0px;
      }

      .cls-2 {
        fill: #fff;
      }
    </style>
  </defs>
  <path class="cls-1" d="M30.1,12.3c-6.3,0-12.4,2.1-17.4,6.1-4.9,3.9-8.4,9.4-9.9,15.5l-2,8.8h15.6l-5.8,25.1h13.3l2.8-12h13.1l3-13.1h-26.4l1.2-5.4c1.3-5.8,6.4-9.9,12.4-9.9h16.2l3.5-15.2h-19.6Z"/>
  <g>
    <path class="cls-2" d="M88.6,21.2v6.6c0,.3-.3.5-.5.5h-13.7c-.3,0-.5.3-.5.5v6.5c0,.3.3.5.5.5h13.3c.3,0,.5.3.5.5v6.6c0,.3-.3.5-.5.5h-13.3c-.3,0-.5.3-.5.5v13.7c0,.3-.3.5-.5.5h-7c-.3,0-.5-.3-.5-.5V21.1c0-.3.3-.5.5-.5h21.9c.2.1.3.3.3.6Z"/>
    <path class="cls-2" d="M114.4,30.6h6.6c.3,0,.5.3.5.5v25.7c0,.3-.3.5-.5.5h-6.6c-.3,0-.5-.3-.5-.5v-1.6c-1.2.9-2.5,1.6-3.9,2.1-1.4.4-2.8.7-4.3.7-2.7,0-5.2-.6-7.2-1.8s-3.6-2.9-4.6-5-1.7-4.6-1.7-7.2.5-5.1,1.7-7.3c1-2.2,2.6-3.9,4.6-5,2-1.2,4.4-1.8,7.2-1.8s2.9.3,4.3.7c1.4.4,2.6,1.2,3.9,2.1v-1.7c0-.2.2-.4.5-.4ZM111.7,48.9c1.4-1.3,2-2.9,2-5s-.6-3.6-2-4.8c-1.4-1.3-3-1.9-5-1.9s-3.7.6-4.9,1.9c-1.3,1.3-1.9,2.9-1.9,4.9s.6,3.7,1.9,4.9c1.3,1.3,2.9,1.9,4.9,1.9,2,0,3.8-.6,5-1.9Z"/>
    <path class="cls-2" d="M151,51.7c.3.2.3.5.1.7-1.3,1.7-2.8,2.9-4.6,3.9-2,1-4.2,1.7-6.5,1.7s-4.9-.6-7.1-1.9c-2.2-1.3-3.9-3-5.1-5.2-1.3-2.2-1.9-4.6-1.9-7s.6-4.9,1.9-7.1c1.3-2.2,3-3.9,5.1-5.1,2.2-1.3,4.6-1.9,7.1-1.9s4.5.5,6.5,1.7c1.8,1,3.3,2.3,4.6,3.9.2.3.1.5-.1.7l-5.4,3.7c-.2,0-.4,0-.6,0-1.5-1.5-3-2.2-4.8-2.2s-3.2.6-4.6,1.9c-1.3,1.3-1.9,2.8-1.9,4.6s.6,3.2,1.9,4.6c1.3,1.3,2.8,1.9,4.6,1.9s3.3-.7,4.8-2.2c.2-.2.4-.2.6,0l5.4,3.5Z"/>
    <path class="cls-2" d="M166.7,50.4c.5.3,1.4.5,2.5.5s1.2,0,1.8,0c.3,0,.5.2.5.5v6c0,.3-.2.4-.4.5-1.6.2-2.9.2-3.9.2-3,0-5.2-.6-6.8-2-1.5-1.4-2.2-3.8-2.2-7.3v-10.3c0-.3-.3-.5-.5-.5h-3.6c-.3,0-.5-.3-.5-.5v-5.8c0-.3.3-.5.5-.5h3.6c.3,0,.5-.3.5-.5v-5.3c0-.2.2-.4.3-.4l6.7-2.2c.3-.1.6.1.6.4v7.5c0,.3.3.5.5.5h4.6c.3,0,.5.3.5.5v5.8c0,.3-.3.5-.5.5h-4.6c-.3,0-.5.3-.5.5v10c0,.9.4,1.7.9,2Z"/>
    <path class="cls-2" d="M182.1,56.2c-2.2-1.3-3.9-3-5.1-5.2-1.3-2.2-1.9-4.6-1.9-7s.6-4.9,1.9-7.1c1.3-2.2,3-3.9,5.1-5.1,2.2-1.3,4.6-1.9,7.1-1.9s4.8.6,7,1.9c2.2,1.3,3.9,3,5.1,5.1,1.3,2.2,1.9,4.6,1.9,7.1s-.6,4.9-1.9,7c-1.3,2.2-3,3.9-5.1,5.2-2.2,1.3-4.5,1.9-7,1.9-2.6-.1-5-.7-7.1-1.9ZM193.7,48.6c1.3-1.3,1.9-2.8,1.9-4.6s-.6-3.2-1.9-4.6c-1.3-1.3-2.8-1.9-4.6-1.9s-3.2.6-4.6,1.9c-1.2,1.3-1.8,2.7-1.9,4.4-.1,1.8.7,3.7,2,4.9s2.7,1.8,4.5,1.8c1.8-.1,3.3-.6,4.6-1.9Z"/>
  </g>
</svg>