<?xml version="1.0" encoding="utf-8"?>
<!-- Generator: Adobe Illustrator 24.0.1, SVG Export Plug-In . SVG Version: 6.00 Build 0)  -->
<svg version="1.1" id="Layer_1" xmlns="http://www.w3.org/2000/svg" xmlns:xlink="http://www.w3.org/1999/xlink" x="0px" y="0px"
	 viewBox="0 0 204 80" style="enable-background:new 0 0 204 80;" xml:space="preserve">
<style type="text/css">
	.st0{fill:#FC1C46;}
</style>
<g>
	<path class="st0" d="M30.1,12.3c-6.3,0-12.4,2.1-17.4,6.1c-4.9,3.9-8.4,9.4-9.9,15.5l-2,8.8h15.6l-5.8,25.1h13.3l2.8-12h13.1
		l3-13.1H16.4l1.2-5.4c1.3-5.8,6.4-9.9,12.4-9.9h16.2l3.5-15.2l0,0L30.1,12.3L30.1,12.3z"/>
	<g>
		<path d="M88.6,21.2v6.6c0,0.3-0.3,0.5-0.5,0.5H74.4c-0.3,0-0.5,0.3-0.5,0.5v6.5c0,0.3,0.3,0.5,0.5,0.5h13.3c0.3,0,0.5,0.3,0.5,0.5
			v6.6c0,0.3-0.3,0.5-0.5,0.5H74.4c-0.3,0-0.5,0.3-0.5,0.5v13.7c0,0.3-0.3,0.5-0.5,0.5h-7c-0.3,0-0.5-0.3-0.5-0.5V21.1
			c0-0.3,0.3-0.5,0.5-0.5h21.9C88.5,20.7,88.6,20.9,88.6,21.2z"/>
		<path d="M114.4,30.6h6.6c0.3,0,0.5,0.3,0.5,0.5v25.7c0,0.3-0.3,0.5-0.5,0.5h-6.6c-0.3,0-0.5-0.3-0.5-0.5v-1.6
			c-1.2,0.9-2.5,1.6-3.9,2.1c-1.4,0.4-2.8,0.7-4.3,0.7c-2.7,0-5.2-0.6-7.2-1.8s-3.6-2.9-4.6-5s-1.7-4.6-1.7-7.2
			c0-2.7,0.5-5.1,1.7-7.3c1-2.2,2.6-3.9,4.6-5c2-1.2,4.4-1.8,7.2-1.8c1.5,0,2.9,0.3,4.3,0.7c1.4,0.4,2.6,1.2,3.9,2.1V31
			C113.8,30.8,114.1,30.6,114.4,30.6z M111.7,48.9c1.4-1.3,2-2.9,2-5c0-1.9-0.6-3.6-2-4.8c-1.4-1.3-3-1.9-5-1.9s-3.7,0.6-4.9,1.9
			c-1.3,1.3-1.9,2.9-1.9,4.9s0.6,3.7,1.9,4.9c1.3,1.3,2.9,1.9,4.9,1.9C108.7,50.9,110.5,50.2,111.7,48.9z"/>
		<path d="M151,51.7c0.3,0.2,0.3,0.5,0.1,0.7c-1.3,1.7-2.8,2.9-4.6,3.9c-2,1-4.2,1.7-6.5,1.7c-2.5,0-4.9-0.6-7.1-1.9
			c-2.2-1.3-3.9-3-5.1-5.2c-1.3-2.2-1.9-4.6-1.9-7c0-2.5,0.6-4.9,1.9-7.1c1.3-2.2,3-3.9,5.1-5.1c2.2-1.3,4.6-1.9,7.1-1.9
			c2.3,0,4.5,0.5,6.5,1.7c1.8,1,3.3,2.3,4.6,3.9c0.2,0.3,0.1,0.5-0.1,0.7l-5.4,3.7c-0.2,0.1-0.4,0.1-0.6-0.1c-1.5-1.5-3-2.2-4.8-2.2
			s-3.2,0.6-4.6,1.9c-1.3,1.3-1.9,2.8-1.9,4.6s0.6,3.2,1.9,4.6c1.3,1.3,2.8,1.9,4.6,1.9s3.3-0.7,4.8-2.2c0.2-0.2,0.4-0.2,0.6-0.1
			L151,51.7z"/>
		<path d="M166.7,50.4c0.5,0.3,1.4,0.5,2.5,0.5c0.5,0,1.2,0,1.8-0.1c0.3,0,0.5,0.2,0.5,0.5v6c0,0.3-0.2,0.4-0.4,0.5
			c-1.6,0.2-2.9,0.2-3.9,0.2c-3,0-5.2-0.6-6.8-2c-1.5-1.4-2.2-3.8-2.2-7.3V38.4c0-0.3-0.3-0.5-0.5-0.5h-3.6c-0.3,0-0.5-0.3-0.5-0.5
			v-5.8c0-0.3,0.3-0.5,0.5-0.5h3.6c0.3,0,0.5-0.3,0.5-0.5v-5.3c0-0.2,0.2-0.4,0.3-0.4l6.7-2.2c0.3-0.1,0.6,0.1,0.6,0.4v7.5
			c0,0.3,0.3,0.5,0.5,0.5h4.6c0.3,0,0.5,0.3,0.5,0.5v5.8c0,0.3-0.3,0.5-0.5,0.5h-4.6c-0.3,0-0.5,0.3-0.5,0.5v10
			C165.8,49.3,166.2,50.1,166.7,50.4z"/>
		<path d="M182.1,56.2c-2.2-1.3-3.9-3-5.1-5.2c-1.3-2.2-1.9-4.6-1.9-7c0-2.5,0.6-4.9,1.9-7.1c1.3-2.2,3-3.9,5.1-5.1
			c2.2-1.3,4.6-1.9,7.1-1.9s4.8,0.6,7,1.9s3.9,3,5.1,5.1c1.3,2.2,1.9,4.6,1.9,7.1s-0.6,4.9-1.9,7c-1.3,2.2-3,3.9-5.1,5.2
			c-2.2,1.3-4.5,1.9-7,1.9C186.6,58,184.2,57.4,182.1,56.2z M193.7,48.6c1.3-1.3,1.9-2.8,1.9-4.6s-0.6-3.2-1.9-4.6
			c-1.3-1.3-2.8-1.9-4.6-1.9s-3.2,0.6-4.6,1.9c-1.2,1.3-1.8,2.7-1.9,4.4c-0.1,1.8,0.7,3.7,2,4.9s2.7,1.8,4.5,1.8
			C190.9,50.4,192.4,49.9,193.7,48.6z"/>
	</g>
</g>
</svg>
