<?xml version="1.0" encoding="UTF-8"?>
<svg id="_图层_1" data-name=" 图层 1" xmlns="http://www.w3.org/2000/svg" version="1.1" viewBox="0 0 600 300">
  <defs>
    <style>
      .cls-1 {
        fill: #fc1c46;
      }

      .cls-1, .cls-2, .cls-3, .cls-4 {
        stroke-width: 0px;
      }

      .cls-2 {
        fill: #f4f4f4;
      }

      .cls-3 {
        fill: #000;
      }

      .cls-4 {
        fill: #fff;
      }
    </style>
  </defs>
  <rect class="cls-2" width="600" height="300" rx="15" ry="15"/>
  <g id="Layer_2" data-name="Layer 2">
    <g id="svg2">
      <g id="g14">
        <g id="g62">
          <path id="path64" class="cls-1" d="M227.6,160.2h0c0-31.1-8.8-35-35-35h0c-26.2,0-35,3.9-35,35h0c0,29,6.6,35,35,35h0c28.4,0,35-6,35-35"/>
        </g>
        <g id="g66">
          <path id="path68" class="cls-4" d="M174.7,148v-.2c-.7-1.5-2.2-2.6-3.9-2.6h-1.8l.9,2.8h4.8Z"/>
        </g>
        <g id="g70">
          <path id="path72" class="cls-4" d="M186.7,163.4h9.1c1,0,1.9-.6,2.2-1.6l.4-1.2h-11.8c-2.4,0-4.6-1.6-5.4-3.9l-1.9-5.5h28.4l.9-2.8h-33.1l3.1,9.1c1.2,3.6,4.5,5.9,8.1,5.9"/>
        </g>
        <g id="g74">
          <path id="path76" class="cls-4" d="M183.5,172.8c-.9.3-1.8-.2-2.1-1.1s-.1-.6,0-.9c.2-.8.9-1.4,1.7-1.3h12.6c3.7,0,7.1-2.4,8.2-6l2.8-8.9h-22.6l.4,1.2c.3.9,1.2,1.5,2.1,1.5h16.2l-1.7,5.4c-.7,2.4-2.9,4-5.4,4h-13c-1.3,0-2.5.7-3.3,1.7s-1.1,2.3-.9,3.6c.3,1.5,1.4,2.8,2.9,3.3,1.4.5,3,.2,4.2-.7.9-.7,1.4-1.6,1.6-2.7h-2.7c-.2.4-.5.8-1,.9"/>
        </g>
        <g id="g78">
          <path id="path80" class="cls-4" d="M205,167l-.8,2.6c.9.3,1.3,1.3,1,2.1-.2.7-.8,1.1-1.5,1.1s-1.2-.4-1.5-.9h-2.9c.4,2.4,2.7,4,5.1,3.6,2.4-.4,4-2.7,3.6-5.1-.3-1.5-1.5-2.9-3-3.4"/>
        </g>
      </g>
    </g>
  </g>
  <g>
    <path class="cls-3" d="M262.1,147.5v4.2h-11.9v7.9h11.4v4.2h-11.4v11.7h-4.4v-28h16.3Z"/>
    <path class="cls-3" d="M281.3,155.5h4.2v20h-4.2v-2.7c-.7,1-1.7,1.8-2.8,2.4-1.1.6-2.3.9-3.7.9-2,0-3.7-.5-5.2-1.4s-2.6-2.2-3.5-3.8c-.8-1.6-1.2-3.4-1.2-5.3s.4-3.8,1.2-5.4c.8-1.6,2-2.9,3.5-3.8s3.2-1.4,5.2-1.4,2.6.3,3.7.9,2,1.4,2.8,2.4v-2.8h0ZM278.2,171.2c1-.6,1.7-1.4,2.3-2.4.5-1,.8-2.1.8-3.4s-.3-2.3-.8-3.3-1.3-1.8-2.3-2.3c-1-.6-2-.8-3.2-.8s-2.2.3-3.1.9c-.9.6-1.6,1.4-2.1,2.4s-.7,2.1-.7,3.3.2,2.3.7,3.3,1.2,1.8,2.1,2.4c.9.6,1.9.9,3.1.9s2.2-.4,3.2-1h0Z"/>
    <path class="cls-3" d="M307.9,171.7c-1,1.4-2.2,2.4-3.7,3.2s-3.1,1.2-4.8,1.2-3.6-.5-5.3-1.4c-1.6-.9-2.9-2.2-3.8-3.8s-1.4-3.4-1.4-5.3.5-3.6,1.4-5.2,2.2-2.9,3.8-3.8c1.6-.9,3.4-1.4,5.3-1.4s3.3.4,4.8,1.2,2.7,1.8,3.7,3.2l-3.4,2.3c-.6-.8-1.4-1.4-2.3-1.8-.9-.4-1.8-.6-2.8-.6s-2.2.3-3.2.8-1.7,1.3-2.3,2.3-.8,2-.8,3.2.3,2.2.8,3.2c.6,1,1.3,1.7,2.3,2.3s2,.9,3.2.9,1.9-.2,2.8-.7c.9-.4,1.6-1,2.3-1.8l3.4,2h0Z"/>
    <path class="cls-3" d="M318.7,171.2c.4.4,1.2.6,2.1.6h1.9v3.9c-1.2,0-2.2.2-3,.2-2,0-3.5-.5-4.4-1.4-1-.9-1.4-2.6-1.4-5.1v-9.9h-4.1v-3.8h4.1v-5.2l4.2-1.4v6.6h4.6v3.8h-4.6v9.6c-.1,1,0,1.7.6,2.2h0Z"/>
    <path class="cls-3" d="M331,174.7c-1.6-.9-2.9-2.2-3.8-3.8s-1.4-3.4-1.4-5.3.5-3.6,1.4-5.2,2.2-2.9,3.8-3.8c1.6-.9,3.4-1.4,5.3-1.4s3.6.5,5.3,1.4c1.6.9,2.9,2.2,3.8,3.8s1.4,3.3,1.4,5.2-.5,3.6-1.4,5.3-2.2,2.9-3.8,3.8-3.4,1.4-5.3,1.4-3.7-.6-5.3-1.4ZM339.4,171c1-.6,1.7-1.3,2.3-2.3s.8-2,.8-3.2-.3-2.2-.8-3.2c-.6-1-1.3-1.7-2.3-2.3s-2-.8-3.2-.8-2.2.3-3.2.8-1.7,1.3-2.3,2.3-.9,2-.9,3.2.3,2.2.9,3.2,1.3,1.7,2.3,2.3,2,.9,3.2.9,2.3-.4,3.2-.9Z"/>
    <path class="cls-3" d="M354.5,174.2c-2-1.2-3.4-2.9-4.2-5l4.2-2.2c.6,1.5,1.5,2.6,2.7,3.4,1.2.8,2.8,1.2,4.7,1.2s2.2-.2,3.1-.6c.9-.4,1.5-.9,2-1.5s.7-1.3.7-1.9-.3-1.4-.8-1.9-1.3-1-2.2-1.3-2.3-.8-4-1.3c-1.9-.6-3.6-1.1-4.8-1.7-1.3-.6-2.3-1.4-3.1-2.4s-1.2-2.4-1.2-4,.4-3,1.3-4.3c.9-1.2,2.1-2.1,3.5-2.8,1.5-.7,3.1-1,4.8-1s4.5.5,6.3,1.6,3.1,2.6,4.1,4.5l-4.3,2.2c-1.2-2.6-3.2-3.9-6.1-3.9s-2.7.4-3.7,1.1c-.9.7-1.4,1.6-1.4,2.6s.2,1.3.6,1.8c.4.4,1,.8,1.7,1.1s1.8.6,3.3,1.1c.1,0,.4,0,.9.3,2.1.6,3.8,1.2,5.2,1.8,1.3.6,2.4,1.4,3.3,2.5s1.3,2.4,1.3,4.1-.5,3.1-1.4,4.3c-.9,1.3-2.2,2.2-3.8,2.9s-3.4,1-5.4,1c-2.8.1-5.3-.5-7.3-1.7h0Z"/>
    <path class="cls-3" d="M394.1,175.5h-4.2v-11.8c0-1.7-.5-2.9-1.4-3.7-.9-.7-2.1-1.1-3.3-1.1s-1.9.3-2.7.9-1.4,1.5-1.7,2.8v13h-4.3v-28h4.2v9.9c.7-.7,1.5-1.3,2.4-1.7s1.9-.6,2.9-.6,2.4.2,3.6.7,2.3,1.4,3.1,2.6c.9,1.3,1.3,2.9,1.3,5.1v12h.1Z"/>
    <path class="cls-3" d="M402.8,174.7c-1.6-.9-2.9-2.2-3.8-3.8s-1.4-3.4-1.4-5.3.5-3.6,1.4-5.2,2.2-2.9,3.8-3.8c1.6-.9,3.4-1.4,5.3-1.4s3.6.5,5.3,1.4c1.6.9,2.9,2.2,3.8,3.8s1.4,3.3,1.4,5.2-.5,3.6-1.4,5.3-2.2,2.9-3.8,3.8-3.4,1.4-5.3,1.4-3.7-.6-5.3-1.4ZM411.2,171c1-.6,1.7-1.3,2.3-2.3s.8-2,.8-3.2-.3-2.2-.8-3.2c-.6-1-1.3-1.7-2.3-2.3s-2-.8-3.2-.8-2.2.3-3.2.8-1.7,1.2-2.3,2.2-.9,2-.9,3.2.3,2.2.9,3.2,1.3,1.7,2.3,2.3,2,.9,3.2.9,2.3-.3,3.2-.8h0Z"/>
    <path class="cls-3" d="M437.8,156.3c1.5.9,2.7,2.2,3.5,3.8s1.2,3.4,1.2,5.4-.4,3.8-1.2,5.4c-.8,1.6-2,2.8-3.5,3.8-1.5.9-3.2,1.4-5.2,1.4s-2.6-.3-3.7-.9c-1.1-.6-2-1.4-2.7-2.4v10.7h-4.2v-28h4.2v2.7c1.6-2.1,3.7-3.2,6.4-3.2s3.7.4,5.2,1.3h0ZM435.6,171.2c.9-.6,1.6-1.4,2.1-2.4s.7-2.1.7-3.3-.2-2.3-.7-3.3-1.2-1.8-2.1-2.4c-.9-.6-1.9-.9-3.1-.9s-2.3.3-3.2.9c-1,.6-1.7,1.4-2.3,2.4-.5,1-.8,2.1-.8,3.4s.3,2.3.8,3.3,1.3,1.8,2.3,2.3c1,.6,2,.8,3.2.8s2.2-.3,3.1-.8Z"/>
  </g>
</svg>